IKResults
version=1
nRows=5
nColumns=40
inDegrees=yes

Units are S.I. units (second, meters, Newtons, ...)
Angles are in degrees.

endheader
time	pelvis_tilt	pelvis_list	pelvis_rotation	pelvis_tx	pelvis_ty	pelvis_tz	hip_flexion_r	hip_adduction_r	hip_rotation_r	knee_angle_r	knee_angle_r_beta	ankle_angle_r	subtalar_angle_r	mtp_angle_r	hip_flexion_l	hip_adduction_l	hip_rotation_l	knee_angle_l	knee_angle_l_beta	ankle_angle_l	subtalar_angle_l	mtp_angle_l	lumbar_extension	lumbar_bending	lumbar_rotation	arm_flex_r	arm_add_r	arm_rot_r	elbow_flex_r	pro_sup_r	wrist_flex_r	wrist_dev_r	arm_flex_l	arm_add_l	arm_rot_l	elbow_flex_l	pro_sup_l	wrist_flex_l	wrist_dev_l
      0.00000000	     17.16228318	     -0.66270258	      3.76919312	     -1.02261895	      0.95675367	     -1.42668843	    -16.44925984	      5.19851999	    -13.92439633	    -16.17081932	     -0.28223404	      9.50036110	     -0.98692606	     -1.33776641	     -1.89637179	      5.18603450	      4.71996351	    -58.18647730	     -1.01554561	      4.82567601	     17.58707975	      1.82247649	    -24.89222162	      0.90860745	      0.95263142	      1.23395100	    -12.23548242	      0.82250290	     38.95777270	     89.95437384	      0.00000000	      0.00000000	     -1.88599219	      6.80035018	     11.28558551	     19.22765377	     89.95437384	      0.00000000	      0.00000000
      0.01000000	     17.04864993	     -0.53044521	      3.56720131	     -1.01343625	      0.95630161	     -1.42642681	    -17.06148430	      5.09203484	    -13.68335312	    -15.97641707	     -0.27884108	      9.91242087	     -0.80839013	     -1.36646287	     -0.78643303	      4.76586448	      4.50464199	    -56.92771681	     -0.99357609	      5.64815266	     17.55327339	      2.04170146	    -24.75405159	      0.64997474	      1.07587013	      1.86304796	    -12.43832907	      0.74025231	     40.12984265	     89.95437384	      0.00000000	      0.00000000	     -2.52359147	      6.71318832	     10.95904739	     18.14781965	     89.95437384	      0.00000000	      0.00000000
      0.02000000	     16.88032817	     -0.42724703	      3.28968097	     -1.00421856	      0.95560543	     -1.42605714	    -17.56088841	      4.96212364	    -13.59904365	    -15.88230501	     -0.27719852	     10.34557012	     -0.85683263	     -1.38758593	      0.32147229	      4.48109030	      4.57650979	    -55.50653482	     -0.96877179	      6.34543533	     17.59450818	      2.18562245	    -24.55114780	      0.37717430	      1.28040724	      2.48536875	    -12.60672881	      0.61368319	     41.19470971	     89.95437384	      0.00000000	      0.00000000	     -3.27525518	      6.63428735	     10.57687044	     17.38151166	     89.95437384	      0.00000000	      0.00000000
      0.03000000	     16.95590551	     -0.06599981	      2.88267865	     -0.99482408	      0.95513549	     -1.42585695	    -18.42141984	      4.55961182	    -13.00464574	    -15.68561509	     -0.27376563	     10.87874346	     -0.93949024	     -1.42824909	      0.91693708	      3.82812438	      4.64765477	    -53.69165995	     -0.93709625	      7.22000106	     17.60020629	      2.49904685	    -24.60387859	     -0.15111419	      1.55413993	      2.94244013	    -12.79594918	      0.33602606	     42.59009724	     89.95437384	      0.00000000	      0.00000000	     -3.94347926	      6.62385291	      9.82899650	     16.60715100	     89.95437384	      0.00000000	      0.00000000
      0.04000000	     17.16076287	      0.29614841	      2.22222345	     -0.98570593	      0.95480211	     -1.42517060	    -19.34500023	      4.07874886	    -12.37871644	    -15.54856690	     -0.27137369	     11.14339776	     -1.37816489	     -1.39484296	      1.22945175	      3.28823943	      5.18033326	    -51.50776137	     -0.89898003	      7.51851868	     17.68494372	      3.21129772	    -24.86271287	     -0.80787811	      2.10148356	      3.47994313	    -12.92570461	     -0.04433325	     43.84386420	     89.95437384	      0.00000000	      0.00000000	     -4.74833279	      6.69662839	      8.66229440	     16.38753271	     89.95437384	      0.00000000	      0.00000000
